<?xml version="1.0" encoding="UTF-8"?>
<svg width="218px" height="96px" viewBox="0 0 218 96" version="1.1" xmlns="http://www.w3.org/2000/svg" xmlns:xlink="http://www.w3.org/1999/xlink">
    <!-- Generator: Sketch 52.1 (67048) - http://www.bohemiancoding.com/sketch -->
    <title>Graph/Emblem/梯kl.1</title>
    <desc>Created with Sketch.</desc>
    <defs>
        <linearGradient x1="2.35548836%" y1="0%" x2="92.7889879%" y2="86.0233917%" id="linearGradient-1">
            <stop stop-color="#6F99C2" offset="0%"></stop>
            <stop stop-color="#85A5CB" offset="42.5436402%"></stop>
            <stop stop-color="#4F7AB4" offset="100%"></stop>
        </linearGradient>
    </defs>
    <g id="Graph/Emblem/梯kl.1" stroke="none" stroke-width="1" fill="none" fill-rule="evenodd">
        <path d="M10,8.04137577e-13 L169.048424,1.3599788e-11 C172.980693,1.39133957e-11 176.547953,2.3045594 178.164424,5.88921519 L214.808875,87.1512655 C215.095834,87.7876203 215.389449,88.4209529 215.68967,89.0511593 L219,96 L10,96 C4.4771525,96 6.76353751e-16,91.5228475 0,86 L-8.04689648e-13,10 C-8.05366002e-13,4.4771525 4.4771525,1.01453063e-15 10,0 Z" id="合并形状-copy-11" fill="url(#linearGradient-1)"></path>
        <path d="M72.6277086,25.6382979 C72.6671904,25.893617 72.5230455,26.212766 72.2597729,26.5957447 L55.6657736,48.1702128 L70.5611071,71.0851064 C70.7197166,71.2765957 70.749328,71.4680851 70.7789394,71.6595745 C70.8480326,72.106383 70.5103905,72.4255319 69.8653997,72.4255319 L59.481048,72.4255319 C58.7070591,72.4255319 58.38984,72.0425532 58.05288,71.5319149 L45.5077604,50.4680851 L45.0293424,71.1489362 C45.0089194,71.8510638 44.3882636,72.4255319 43.6787738,72.4255319 L35.2293945,72.4255319 C34.5844037,72.4255319 34.128316,71.9787234 34.0394818,71.4042553 L34,71.1489362 L35.0490808,26.212766 C35.0695039,25.5106383 35.635531,25 36.3450209,25 L44.7944002,25 C45.4393909,25 45.9501073,25.3829787 46.0488119,26.0212766 L46.0784233,26.212766 L45.5862229,45.5531915 L59.5541365,25.7659574 C59.9266664,25.2553191 60.274179,25 60.9836689,25 L71.5615178,25 C72.2065086,25 72.5684858,25.2553191 72.6277086,25.6382979 Z M105.37105,64.7021277 L105.400661,64.893617 L105.22213,70.8297872 C105.221447,71.6595745 104.883805,71.9787234 103.94593,72.1702128 C101.822055,72.6170213 96.7858505,73 93.3673994,73 C86.2725007,73 79.3731458,70.5106383 78.1294676,62.4680851 C77.9814107,61.5106383 77.942611,60.4255319 77.9584399,59.2765957 L78.7248275,26.2765957 C78.7452506,25.5744681 79.3659063,25 80.0753961,25 L88.5247754,25 C89.1697662,25 89.6258539,25.4468085 89.7146881,26.0212766 L89.7541699,26.2765957 L88.9877824,59.2765957 C88.9574888,59.9148936 88.9818239,60.4893617 89.0509171,60.9361702 C89.3667719,62.9787234 90.5619609,63.6170213 93.0129258,63.6170213 L104.106767,63.6170213 C104.751758,63.6170213 105.272345,64.0638298 105.37105,64.7021277 Z M120.767953,62.9148936 L120.797564,63.106383 L120.622263,71.1489362 C120.601839,71.8510638 119.981184,72.4255319 119.271694,72.4255319 L111.725302,72.4255319 C111.080311,72.4255319 110.559724,71.9787234 110.461019,71.3404255 L110.431408,71.1489362 L110.60671,63.106383 C110.627133,62.4042553 111.257659,61.893617 111.967149,61.893617 L119.513541,61.893617 C120.158532,61.893617 120.669248,62.2765957 120.767953,62.9148936 Z M132.317882,63.3617021 L140.896259,63.3617021 L141.489392,35.9148936 L133.012267,39.4893617 C132.709512,39.6170213 132.461386,39.6808511 132.267889,39.6808511 C131.816396,39.6808511 131.573546,39.3617021 131.559081,38.8510638 L131.72383,31.5744681 C131.783735,31.1276596 131.937751,30.8723404 132.424132,30.6808511 L144.226962,25.2553191 C144.648844,25.0638298 145.090467,25 145.735458,25 L151.540375,25 C152.249865,25 152.715823,25.5106383 152.6954,26.212766 L151.861103,63.3617021 L160.43948,63.3617021 C161.14897,63.3617021 161.679427,63.8723404 161.659004,64.5744681 L161.514678,71.1489362 C161.494255,71.8510638 160.938099,72.4255319 160.228609,72.4255319 L132.10701,72.4255319 C131.397521,72.4255319 130.792694,71.8510638 130.813117,71.1489362 L130.957443,64.5744681 C130.977866,63.8723404 131.608392,63.3617021 132.317882,63.3617021 Z" id="KL.1-Copy" fill="#FFFFFF"></path>
    </g>
</svg>